<svg width="375" height="549" viewBox="0 0 375 549" fill="none" xmlns="http://www.w3.org/2000/svg">
<path d="M333.062 305.464C419.408 379.499 541.514 313.578 563.207 287.938L308.142 -189L-164.897 63.9804C-165.033 72.9863 -156.37 102.148 -120.635 146.745C-75.9664 202.492 16.6145 263.806 88.2444 243.693C255.052 196.856 219.351 207.964 333.062 305.464Z" fill="#EEF7FE"/>
<path fill-rule="evenodd" clip-rule="evenodd" d="M393.725 153.603C391.653 153.603 389.654 153.913 387.769 154.484C384.33 139.997 371.31 129.22 355.771 129.22C340.329 129.22 327.374 139.865 323.839 154.216C322.242 153.817 320.573 153.603 318.853 153.603C307.527 153.603 298.346 162.784 298.346 174.109C298.346 185.435 307.527 194.616 318.853 194.616H350.756C352.391 194.866 354.066 194.996 355.771 194.996C357.477 194.996 359.151 194.866 360.787 194.616H393.725C405.05 194.616 414.231 185.435 414.231 174.109C414.231 162.784 405.05 153.603 393.725 153.603Z" fill="#DDEEFB"/>
<path fill-rule="evenodd" clip-rule="evenodd" d="M250.799 97.0046C250.137 97.0046 249.499 97.1037 248.897 97.2862C247.799 92.6609 243.642 89.2202 238.681 89.2202C233.75 89.2202 229.614 92.6187 228.486 97.2005C227.976 97.0732 227.443 97.0046 226.894 97.0046C223.278 97.0046 220.346 99.936 220.346 103.552C220.346 107.168 223.278 110.099 226.894 110.099H237.08C237.602 110.179 238.136 110.22 238.681 110.22C239.225 110.22 239.76 110.179 240.282 110.099H250.799C254.415 110.099 257.346 107.168 257.346 103.552C257.346 99.936 254.415 97.0046 250.799 97.0046Z" fill="#DDEEFB"/>
<path fill-rule="evenodd" clip-rule="evenodd" d="M39.799 182.005C39.1375 182.005 38.4992 182.104 37.8974 182.286C36.7994 177.661 32.6424 174.22 27.681 174.22C22.7505 174.22 18.6144 177.619 17.4857 182.201C16.9759 182.073 16.4429 182.005 15.8936 182.005C12.2776 182.005 9.34619 184.936 9.34619 188.552C9.34619 192.168 12.2776 195.099 15.8936 195.099H26.0797C26.6018 195.179 27.1366 195.22 27.681 195.22C28.2255 195.22 28.7603 195.179 29.2824 195.099H39.799C43.4149 195.099 46.3462 192.168 46.3462 188.552C46.3462 184.936 43.4149 182.005 39.799 182.005Z" fill="#DDEEFB"/>
<path fill-rule="evenodd" clip-rule="evenodd" d="M83.799 65.0046C83.1375 65.0046 82.4992 65.1037 81.8974 65.2862C80.7994 60.6609 76.6424 57.2202 71.681 57.2202C66.7505 57.2202 62.6144 60.6187 61.4857 65.2005C60.9759 65.0732 60.4429 65.0046 59.8936 65.0046C56.2776 65.0046 53.3462 67.936 53.3462 71.5516C53.3462 75.1676 56.2776 78.0988 59.8936 78.0988H70.0797C70.6018 78.1786 71.1366 78.2202 71.681 78.2202C72.2255 78.2202 72.7603 78.1786 73.2824 78.0988H83.799C87.4149 78.0988 90.3462 75.1676 90.3462 71.5516C90.3462 67.936 87.4149 65.0046 83.799 65.0046Z" fill="#DDEEFB"/>
</svg>
